Coordinates
version=1
nRows=5
nColumns=40
inDegrees=yes

Units are S.I. units (second, meters, Newtons, ...)
Angles are in degrees.

endheader
time	pelvis_tilt	pelvis_list	pelvis_rotation	pelvis_tx	pelvis_ty	pelvis_tz	hip_flexion_r	hip_adduction_r	hip_rotation_r	knee_angle_r	knee_angle_r_beta	ankle_angle_r	subtalar_angle_r	mtp_angle_r	hip_flexion_l	hip_adduction_l	hip_rotation_l	knee_angle_l	knee_angle_l_beta	ankle_angle_l	subtalar_angle_l	mtp_angle_l	lumbar_extension	lumbar_bending	lumbar_rotation	arm_flex_r	arm_add_r	arm_rot_r	elbow_flex_r	pro_sup_r	wrist_flex_r	wrist_dev_r	arm_flex_l	arm_add_l	arm_rot_l	elbow_flex_l	pro_sup_l	wrist_flex_l	wrist_dev_l
     53.97000000	     -5.76191294	     -3.93331261	     -7.72435809	      1.13927952	      0.92948966	      0.50822516	     17.34533944	      2.39997980	     -5.29169407	     17.74553726	     17.74553726	      8.41077715	      4.24687785	     -3.95438984	      2.27270385	    -11.18153711	    -15.02634480	     19.02248677	     19.02248677	     16.18353727	     -7.60407197	      0.98666736	     -8.15587953	      6.30812920	     -0.17211330	     -7.77383593	    -15.66813599	     -7.32668435	     46.16154634	     45.32249859	      0.00000000	      0.00000000	     29.17597943	    -20.25736897	    -15.35918276	     90.19004043	     48.97438301	      0.00000000	      0.00000000
     53.99028571	     -5.93723458	     -4.18881295	     -6.98506584	      1.13999822	      0.92961716	      0.51239293	     16.84544946	      2.84391914	     -5.96220344	     17.24917458	     17.24917458	      8.60412237	      4.20010310	     -3.88558060	      3.14929761	    -12.14615190	    -14.49190949	     20.65813400	     20.65813400	     16.00530283	     -7.32907227	      0.51470568	     -7.95587768	      6.51289592	     -0.65553818	     -6.49026397	    -16.20859861	     -7.12786973	     47.21523122	     45.28646401	      0.00000000	      0.00000000	     27.45815416	    -19.87407498	    -14.62952465	     87.81766905	     48.86425337	      0.00000000	      0.00000000
     54.01057143	     -5.90895235	     -4.27607603	     -6.30764443	      1.14068916	      0.92984323	      0.51637426	     16.33429354	      3.10179552	     -6.37489272	     17.08496999	     17.08496999	      8.91736915	      3.89016352	     -3.94910227	      3.81957304	    -12.91076150	    -14.13587045	     22.26219561	     22.26219561	     15.62046248	     -6.85103656	     -0.46371041	     -7.93890235	      6.46557516	     -0.31552366	     -5.86215127	    -17.20666264	     -5.79803003	     48.79206817	     45.19243997	      0.00000000	      0.00000000	     26.49411492	    -18.77630199	    -12.97682618	     84.37224610	     48.66202766	      0.00000000	      0.00000000
     54.03085714	     -5.89807478	     -4.32828618	     -5.55474660	      1.14121138	      0.92992563	      0.52003615	     15.88726551	      3.29095656	     -6.89731026	     16.96705892	     16.96705892	      9.21265315	      3.61464073	     -4.00966502	      4.83112476	    -13.59206452	    -13.22405598	     24.30044216	     24.30044216	     15.16726957	     -7.05875375	     -1.20177409	     -7.97486567	      6.39296543	     -0.61348152	     -4.44786928	    -17.70698665	     -5.80359993	     49.52847017	     45.17976754	      0.00000000	      0.00000000	     24.50693515	    -18.00443897	    -12.17519038	     82.21986621	     48.55171547	      0.00000000	      0.00000000
     54.05114286	     -5.81202806	     -4.36751349	     -4.79708540	      1.14158337	      0.92991355	      0.52350860	     15.50155085	      3.46998850	     -7.24046202	     17.08380597	     17.08380597	      9.58601378	      3.03396308	     -4.13023106	      5.93029385	    -14.26398123	    -12.26608299	     26.51605923	     26.51605923	     14.00970696	     -7.55204462	     -3.41152856	     -8.02509289	      6.33409189	     -0.44485408	     -3.16284936	    -18.47710704	     -5.03096426	     50.02376375	     45.15531910	      0.00000000	      0.00000000	     23.32375259	    -17.05557475	    -10.56645760	     77.84808745	     48.34356873	      0.00000000	      0.00000000
